# xmcd
#
# Track frame offsets:
#	150
#	15294
#	26221
#	40272
#	53207
#	67342
#	82177
#	95402
#	112780
#	123457
#	136958
#	152832
#
# Disc length: 2176 seconds
#
# Revision: 1
# Processed by: cddbd v1.5.1PL2 Copyright (c) Steve Scherf et al.
# Submitted via: audiograbber 1.83.01
#
DISCID=9f087e0c
DTITLE=Lilla Texas - Whisky and dynamite
DYEAR=2006
DGENRE=Country
TTITLE0=Keep on the sunny side
TTITLE1=Lilla Texas
TTITLE2=I don't know
TTITLE3=Broken promises
TTITLE4=Man of constant sorrow
TTITLE5=Far behind
TTITLE6=Swedish vagabond
TTITLE7=Until you can proove
TTITLE8=Whisky and dynamite
TTITLE9=Red, red roses
TTITLE10=Tiden stannar
TTITLE11=Tanqueray girl
EXTD=
EXTT0=
EXTT1=
EXTT2=
EXTT3=
EXTT4=
EXTT5=
EXTT6=
EXTT7=
EXTT8=
EXTT9=
EXTT10=
EXTT11=
PLAYORDER=
